<svg width="176.000000" height="176.000000" viewBox="0 0 176 176" fill="none" xmlns="http://www.w3.org/2000/svg" xmlns:xlink="http://www.w3.org/1999/xlink">
	<desc>
			Created with Pixso.
	</desc>
	<defs>
		<clipPath id="clip328_14">
			<rect id="weather" rx="0.000000" width="175.000000" height="175.000000" transform="translate(0.500000 0.500000)" fill="white" fill-opacity="0"/>
		</clipPath>
	</defs>
	<g clip-path="url(#clip328_14)">
		<path id="path36" d="M155.8 80.6C155.75 80.6 155.7 80.62 155.64 80.62C156.65 78.31 157.21 75.76 157.21 73.08C157.21 62.56 148.68 54.04 138.17 54.04C134.45 54.04 131 55.12 128.06 56.96C124.1 47.32 114.63 40.53 103.57 40.53C88.94 40.53 77.08 52.39 77.08 67.03C77.08 68.13 77.17 69.21 77.3 70.28C77.22 70.28 77.15 70.28 77.08 70.28C67.27 70.28 59.32 78.22 59.32 88.03C59.32 97.84 67.27 105.8 77.08 105.8L155.8 105.8C162.76 105.8 168.4 100.16 168.4 93.2C168.4 86.24 162.76 80.6 155.8 80.6Z" fill="#C2CEF2" fill-opacity="1.000000" fill-rule="nonzero"/>
		<path id="path38" d="M124.24 97.18C124.18 97.18 124.12 97.19 124.05 97.19C125.26 94.4 125.93 91.32 125.93 88.09C125.93 75.41 115.65 65.14 102.98 65.14C98.5 65.14 94.33 66.44 90.8 68.66C86.02 57.05 74.6 48.86 61.26 48.86C43.62 48.86 29.32 63.16 29.32 80.8C29.32 82.13 29.43 83.44 29.59 84.73C29.5 84.73 29.41 84.71 29.32 84.71C17.49 84.71 7.91 94.3 7.91 106.13C7.91 117.96 17.49 127.55 29.32 127.55L124.24 127.55C132.63 127.55 139.43 120.75 139.43 112.36C139.43 103.97 132.63 97.18 124.24 97.18Z" fill="#FFFFFF" fill-opacity="1.000000" fill-rule="nonzero"/>
	</g>
</svg>
