<svg width="11.666626" height="13.958313" viewBox="0 0 11.6666 13.9583" fill="none" xmlns="http://www.w3.org/2000/svg" xmlns:xlink="http://www.w3.org/1999/xlink">
	<desc>
			Created with Pixso.
	</desc>
	<defs/>
	<path id="Vector" d="M5.83 4.16C4.91 4.16 4.16 4.91 4.16 5.83C4.16 6.75 4.91 7.5 5.83 7.5C6.75 7.5 7.5 6.75 7.5 5.83C7.5 4.91 6.75 4.16 5.83 4.16ZM5.83 0C8.55 0 11.66 2.04 11.66 5.95C11.66 8.44 9.89 11.05 6.34 13.78C6.04 14.01 5.62 14.01 5.32 13.78C1.77 11.05 0 8.44 0 5.95C0 2.04 3.1 0 5.83 0Z" fill="#9D99E4" fill-opacity="1.000000" fill-rule="nonzero"/>
</svg>
